<?xml version="1.0" standalone="no"?>
<!DOCTYPE svg PUBLIC "-//W3C//DTD SVG 20010904//EN"
 "http://www.w3.org/TR/2001/REC-SVG-20010904/DTD/svg10.dtd">
<svg version="1.0" xmlns="http://www.w3.org/2000/svg"
 width="260.000000pt" height="260.000000pt" viewBox="0 0 260.000000 260.000000"
 preserveAspectRatio="xMidYMid meet">
<metadata>
Created by potrace 1.14, written by Peter Selinger 2001-2017
</metadata>
<g transform="translate(0.000000,260.000000) scale(0.100000,-0.100000)"
fill="#000000" stroke="none">
<path d="M1119 2465 c-1 0 -2 -47 -3 -105 -1 -101 -8 -136 -25 -125 -17 10
-178 -38 -258 -77 -90 -43 -184 -127 -218 -194 -11 -22 -22 -41 -25 -44 -15
-14 -32 -95 -37 -180 -12 -214 75 -365 262 -455 66 -32 182 -67 260 -79 17 -2
32 -5 35 -5 3 -1 5 -136 5 -300 0 -260 -2 -298 -15 -296 -37 8 -101 35 -140
60 -117 74 -178 189 -181 345 l-2 60 -139 0 -139 0 2 -88 c3 -178 77 -348 198
-460 84 -76 239 -154 352 -175 33 -6 60 -15 60 -21 1 -6 2 -58 3 -116 l1 -105
133 -2 132 -2 0 115 0 114 28 1 c47 2 75 6 145 23 241 57 415 232 442 442 27
213 -25 370 -158 476 -92 73 -261 138 -404 155 l-53 6 -1 131 c0 232 2 390 6
395 10 10 153 -71 189 -106 50 -49 84 -123 90 -198 2 -33 5 -61 5 -62 1 -1 61
-1 135 -2 97 0 135 3 139 12 5 14 1 78 -8 147 -4 25 -24 82 -45 127 -76 164
-240 289 -444 340 l-66 16 0 117 0 116 -130 0 c-71 0 -131 0 -131 -1z m-4
-746 l0 -251 -37 5 c-98 13 -198 84 -228 162 -16 43 -15 134 2 175 31 74 156
155 243 159 20 1 20 -5 20 -250z m353 -568 c166 -43 230 -105 246 -238 7 -52
-13 -131 -45 -178 -42 -63 -147 -120 -256 -139 l-32 -5 -3 157 c-4 211 1 422
10 422 4 0 40 -9 80 -19z"/>
</g>
</svg>
